<?xml version="1.0" encoding="UTF-8" standalone="no"?>
<!DOCTYPE svg PUBLIC "-//W3C//DTD SVG 1.1//EN" "http://www.w3.org/Graphics/SVG/1.1/DTD/svg11.dtd">
<svg width="100%" height="100%" viewBox="0 0 1920 1081" version="1.1" xmlns="http://www.w3.org/2000/svg" xmlns:xlink="http://www.w3.org/1999/xlink" xml:space="preserve" xmlns:serif="http://www.serif.com/" style="fill-rule:evenodd;clip-rule:evenodd;stroke-linejoin:round;stroke-miterlimit:1.41421;">
    <g transform="matrix(1,0,0,1,0,-2286)">
        <g id="Illustration" transform="matrix(2.37132,0,0,2.1038,-133.034,2226.48)">
            <rect x="56.101" y="28.592" width="809.675" height="513.357" style="fill:none;"/>
            <clipPath id="_clip1">
                <rect x="56.101" y="28.592" width="809.675" height="513.357"/>
            </clipPath>
            <g clip-path="url(#_clip1)">
                <g transform="matrix(1,0,0,1,7.10543e-14,-148.303)">
                    <g transform="matrix(0.421706,0,0,0.700673,56.1011,-66.4741)">
                        <rect x="0" y="0" width="1920" height="1080" style="fill:url(#_Linear2);"/>
                    </g>
                    <g transform="matrix(0.421706,0,0,0.658556,56.1011,165.817)">
                        <path d="M0,421L176,245L285,354L522,117L630,225L766,89L889,212L937,164L1257,484L1349,392L1398,441L1556,283L1607,334L1834,107L1920,193L1920,819L0,751L0,421Z" style="fill:url(#_Linear3);"/>
                    </g>
                    <g transform="matrix(0.421706,0,0,0.658556,56.1011,189.583)">
                        <path d="M0,543L308,235L416,343L642,117L781,256L817,220L947,350L1011,286L1216,491L1268,544L1308,505L1453,360L1498,405L1714,189L1794,269L1831,232L1920,321L1920,1080L0,1080" style="fill:url(#_Linear4);"/>
                    </g>
                    <g transform="matrix(0.421706,0,0,0.658556,56.1011,-23.1303)">
                        <clipPath id="_clip5">
                            <path d="M0,866L308,558L416,666L642,440L781,579L817,543L947,673L1011,609L1216,814L1268,867L1308,828L1453,683L1498,728L1714,512L1794,592L1831,555L1920,644L1920,1403L0,1403"/>
                        </clipPath>
                        <g clip-path="url(#_clip5)">
                            <path d="M1013,608L510,1111L1880,1111L1350,581L1013,608Z" style="fill:url(#_Linear6);"/>
                        </g>
                    </g>
                </g>
            </g>
        </g>
    </g>
    <defs>
        <linearGradient id="_Linear2" x1="0" y1="0" x2="1" y2="0" gradientUnits="userSpaceOnUse" gradientTransform="matrix(828,-1581.33,2331,561.709,792,1046.08)"><stop offset="0" style="stop-color:rgb(223,224,51);stop-opacity:1"/><stop offset="0.25" style="stop-color:rgb(210,155,36);stop-opacity:1"/><stop offset="0.5" style="stop-color:rgb(193,124,38);stop-opacity:1"/><stop offset="0.75" style="stop-color:rgb(171,96,41);stop-opacity:1"/><stop offset="1" style="stop-color:rgb(145,71,41);stop-opacity:1"/></linearGradient>
        <linearGradient id="_Linear3" x1="0" y1="0" x2="1" y2="0" gradientUnits="userSpaceOnUse" gradientTransform="matrix(1.36242e-13,-1605.95,2225,9.83363e-14,1270,958.02)"><stop offset="0" style="stop-color:rgb(223,224,51);stop-opacity:1"/><stop offset="0.25" style="stop-color:rgb(210,155,36);stop-opacity:1"/><stop offset="0.5" style="stop-color:rgb(193,124,38);stop-opacity:1"/><stop offset="0.75" style="stop-color:rgb(171,96,41);stop-opacity:1"/><stop offset="1" style="stop-color:rgb(145,71,41);stop-opacity:1"/></linearGradient>
        <linearGradient id="_Linear4" x1="0" y1="0" x2="1" y2="0" gradientUnits="userSpaceOnUse" gradientTransform="matrix(1.12423e-13,-1325.18,1836,8.1144e-14,698,1080)"><stop offset="0" style="stop-color:rgb(223,224,51);stop-opacity:1"/><stop offset="0.25" style="stop-color:rgb(210,155,36);stop-opacity:1"/><stop offset="0.5" style="stop-color:rgb(193,124,38);stop-opacity:1"/><stop offset="0.75" style="stop-color:rgb(171,96,41);stop-opacity:1"/><stop offset="1" style="stop-color:rgb(145,71,41);stop-opacity:1"/></linearGradient>
        <linearGradient id="_Linear6" x1="0" y1="0" x2="1" y2="0" gradientUnits="userSpaceOnUse" gradientTransform="matrix(8.43296e-14,-994.036,1377.21,6.08672e-14,1230,1434.04)"><stop offset="0" style="stop-color:rgb(223,224,51);stop-opacity:1"/><stop offset="0.25" style="stop-color:rgb(210,155,36);stop-opacity:1"/><stop offset="0.5" style="stop-color:rgb(193,124,38);stop-opacity:1"/><stop offset="0.75" style="stop-color:rgb(171,96,41);stop-opacity:1"/><stop offset="1" style="stop-color:rgb(145,71,41);stop-opacity:1"/></linearGradient>
    </defs>
</svg>
